# MagicaVoxel @ Ephtracy

# group
o 

# material
mtllib mousetrap-base.mtl
usemtl palette

# normals
vn -1 0 0
vn 1 0 0
vn 0 0 1
vn 0 0 -1
vn 0 -1 0
vn 0 1 0

# texcoords
vt 0.0136719 0.5
vt 0.0175781 0.5
vt 0.0292969 0.5
vt 0.0410156 0.5
vt 0.0957031 0.5

# verts
v -0.7 0 0.4
v -0.7 0 -0.4
v -0.7 0.1 0.4
v -0.7 0.1 -0.4
v -0.4 0.1 0.1
v -0.4 0.1 -0.1
v -0.4 0.2 0.1
v -0.4 0.2 -0.1
v -0.4 0.3 0.1
v -0.4 0.3 -0.1
v 0 0.1 0.3
v 0 0.1 0.2
v 0 0.1 0.1
v 0 0.1 -0.1
v 0 0.1 -0.2
v 0 0.1 -0.3
v 0 0.2 0.3
v 0 0.2 0.1
v 0 0.2 -0.1
v 0 0.2 -0.3
v -0.2 0.2 0.1
v -0.2 0.2 -0.1
v -0.2 0.3 0.1
v -0.2 0.3 -0.1
v 0.1 0.1 0.3
v 0.1 0.1 0.2
v 0.1 0.1 -0.2
v 0.1 0.1 -0.3
v 0.1 0.2 0.3
v 0.1 0.2 -0.3
v 0.7 0 0.4
v 0.7 0 -0.4
v 0.7 0.1 0.4
v 0.7 0.1 -0.4
v -0.7 0 0.4
v -0.7 0.1 0.4
v 0.7 0 0.4
v 0.7 0.1 0.4
v 0 0.1 0.3
v 0 0.2 0.3
v 0.1 0.1 0.3
v 0.1 0.2 0.3
v -0.4 0.1 0.1
v -0.4 0.2 0.1
v -0.4 0.3 0.1
v -0.2 0.2 0.1
v -0.2 0.3 0.1
v 0 0.1 0.1
v 0 0.2 0.1
v -0.4 0.1 -0.1
v -0.4 0.2 -0.1
v -0.4 0.3 -0.1
v -0.2 0.2 -0.1
v -0.2 0.3 -0.1
v 0 0.1 -0.1
v 0 0.2 -0.1
v 0 0.1 -0.3
v 0 0.2 -0.3
v 0.1 0.1 -0.3
v 0.1 0.2 -0.3
v -0.7 0 -0.4
v -0.7 0.1 -0.4
v 0.7 0 -0.4
v 0.7 0.1 -0.4
v -0.7 0 0.4
v 0.7 0 0.4
v -0.6 0 0.3
v 0.6 0 0.3
v -0.5 0 0.2
v 0.5 0 0.2
v -0.5 0 -0.2
v 0.5 0 -0.2
v -0.6 0 -0.3
v 0.6 0 -0.3
v -0.7 0 -0.4
v 0.7 0 -0.4
v -0.7 0.1 0.4
v 0.7 0.1 0.4
v -0.6 0.1 0.3
v 0 0.1 0.3
v 0.1 0.1 0.3
v 0.6 0.1 0.3
v -0.5 0.1 0.2
v 0 0.1 0.2
v 0.1 0.1 0.2
v 0.5 0.1 0.2
v -0.4 0.1 0.1
v 0 0.1 0.1
v -0.4 0.1 -0.1
v 0 0.1 -0.1
v -0.5 0.1 -0.2
v 0 0.1 -0.2
v 0.1 0.1 -0.2
v 0.5 0.1 -0.2
v -0.6 0.1 -0.3
v 0 0.1 -0.3
v 0.1 0.1 -0.3
v 0.6 0.1 -0.3
v -0.7 0.1 -0.4
v 0.7 0.1 -0.4
v 0 0.2 0.3
v 0.1 0.2 0.3
v -0.2 0.2 0.1
v 0 0.2 0.1
v -0.2 0.2 -0.1
v 0 0.2 -0.1
v 0 0.2 -0.3
v 0.1 0.2 -0.3
v -0.4 0.3 0.1
v -0.2 0.3 0.1
v -0.4 0.3 -0.1
v -0.2 0.3 -0.1

# faces
f 3/1/1 2/1/1 1/1/1
f 4/1/1 2/1/1 3/1/1
f 7/5/1 6/5/1 5/5/1
f 8/5/1 6/5/1 7/5/1
f 9/2/1 8/2/1 7/2/1
f 10/2/1 8/2/1 9/2/1
f 17/4/1 12/4/1 11/4/1
f 17/4/1 13/4/1 12/4/1
f 18/4/1 13/4/1 17/4/1
f 19/4/1 16/4/1 15/4/1
f 19/4/1 15/4/1 14/4/1
f 20/4/1 16/4/1 19/4/1
f 21/2/2 22/2/2 23/2/2
f 23/2/2 22/2/2 24/2/2
f 25/4/2 26/4/2 29/4/2
f 27/4/2 28/4/2 29/4/2
f 26/4/2 27/4/2 29/4/2
f 29/4/2 28/4/2 30/4/2
f 31/1/2 32/1/2 33/1/2
f 33/1/2 32/1/2 34/1/2
f 37/1/3 36/1/3 35/1/3
f 38/1/3 36/1/3 37/1/3
f 41/4/3 40/4/3 39/4/3
f 42/4/3 40/4/3 41/4/3
f 46/5/3 44/5/3 43/5/3
f 46/2/3 45/2/3 44/2/3
f 47/2/3 45/2/3 46/2/3
f 48/5/3 46/5/3 43/5/3
f 49/5/3 46/5/3 48/5/3
f 50/5/4 51/5/4 53/5/4
f 51/2/4 52/2/4 53/2/4
f 53/2/4 52/2/4 54/2/4
f 50/5/4 53/5/4 55/5/4
f 55/5/4 53/5/4 56/5/4
f 57/4/4 58/4/4 59/4/4
f 59/4/4 58/4/4 60/4/4
f 61/1/4 62/1/4 63/1/4
f 63/1/4 62/1/4 64/1/4
f 67/1/5 66/1/5 65/1/5
f 68/1/5 66/1/5 67/1/5
f 69/3/5 68/3/5 67/3/5
f 70/3/5 68/3/5 69/3/5
f 71/3/5 69/3/5 67/3/5
f 71/1/5 70/1/5 69/1/5
f 72/3/5 68/3/5 70/3/5
f 72/1/5 70/1/5 71/1/5
f 73/1/5 67/1/5 65/1/5
f 73/3/5 71/3/5 67/3/5
f 73/3/5 72/3/5 71/3/5
f 74/3/5 68/3/5 72/3/5
f 74/3/5 72/3/5 73/3/5
f 74/1/5 66/1/5 68/1/5
f 75/1/5 73/1/5 65/1/5
f 75/1/5 74/1/5 73/1/5
f 76/1/5 66/1/5 74/1/5
f 76/1/5 74/1/5 75/1/5
f 77/1/6 78/1/6 79/1/6
f 79/1/6 78/1/6 80/1/6
f 80/1/6 78/1/6 81/1/6
f 81/1/6 78/1/6 82/1/6
f 79/3/6 80/3/6 83/3/6
f 83/3/6 80/3/6 84/3/6
f 81/3/6 82/3/6 85/3/6
f 85/3/6 82/3/6 86/3/6
f 83/1/6 84/1/6 87/1/6
f 87/1/6 84/1/6 88/1/6
f 83/1/6 87/1/6 89/1/6
f 79/3/6 83/3/6 91/3/6
f 89/1/6 90/1/6 91/1/6
f 83/1/6 89/1/6 91/1/6
f 91/1/6 90/1/6 92/1/6
f 85/1/6 86/1/6 93/1/6
f 86/3/6 82/3/6 94/3/6
f 93/1/6 86/1/6 94/1/6
f 77/1/6 79/1/6 95/1/6
f 91/3/6 92/3/6 95/3/6
f 79/3/6 91/3/6 95/3/6
f 95/3/6 92/3/6 96/3/6
f 93/3/6 94/3/6 97/3/6
f 94/3/6 82/3/6 98/3/6
f 82/1/6 78/1/6 98/1/6
f 97/3/6 94/3/6 98/3/6
f 96/1/6 97/1/6 99/1/6
f 95/1/6 96/1/6 99/1/6
f 97/1/6 98/1/6 99/1/6
f 77/1/6 95/1/6 99/1/6
f 98/1/6 78/1/6 100/1/6
f 99/1/6 98/1/6 100/1/6
f 101/4/6 102/4/6 104/4/6
f 103/5/6 104/5/6 105/5/6
f 104/4/6 102/4/6 106/4/6
f 105/5/6 104/5/6 106/5/6
f 106/4/6 102/4/6 107/4/6
f 107/4/6 102/4/6 108/4/6
f 109/2/6 110/2/6 111/2/6
f 111/2/6 110/2/6 112/2/6
