# MagicaVoxel @ Ephtracy

# group
o 

# material
mtllib italian-flag.mtl
usemtl palette

# normals
vn -1 0 0
vn 1 0 0
vn 0 0 1
vn 0 0 -1
vn 0 -1 0
vn 0 1 0

# texcoords
vt 0.0332031 0.5
vt 0.0527344 0.5
vt 0.0761719 0.5

# verts
v -0.8 0 0.1
v -0.8 0 0
v -0.8 0.9 0.1
v -0.8 0.9 0
v 0.7 0 0.1
v 0.7 0 0
v 0.7 0.9 0.1
v 0.7 0.9 0
v -0.8 0 0.1
v -0.8 0.9 0.1
v -0.3 0 0.1
v -0.3 0.9 0.1
v 0.2 0 0.1
v 0.2 0.9 0.1
v 0.7 0 0.1
v 0.7 0.9 0.1
v -0.8 0 0
v -0.8 0.9 0
v -0.3 0 0
v -0.3 0.9 0
v 0.2 0 0
v 0.2 0.9 0
v 0.7 0 0
v 0.7 0.9 0
v -0.8 0 0.1
v -0.3 0 0.1
v 0.2 0 0.1
v 0.7 0 0.1
v -0.8 0 0
v -0.3 0 0
v 0.2 0 0
v 0.7 0 0
v -0.8 0.9 0.1
v -0.3 0.9 0.1
v 0.2 0.9 0.1
v 0.7 0.9 0.1
v -0.8 0.9 0
v -0.3 0.9 0
v 0.2 0.9 0
v 0.7 0.9 0

# faces
f 3/2/1 2/2/1 1/2/1
f 4/2/1 2/2/1 3/2/1
f 5/1/2 6/1/2 7/1/2
f 7/1/2 6/1/2 8/1/2
f 11/2/3 10/2/3 9/2/3
f 12/2/3 10/2/3 11/2/3
f 13/3/3 12/3/3 11/3/3
f 14/3/3 12/3/3 13/3/3
f 15/1/3 14/1/3 13/1/3
f 16/1/3 14/1/3 15/1/3
f 17/2/4 18/2/4 19/2/4
f 19/2/4 18/2/4 20/2/4
f 19/3/4 20/3/4 21/3/4
f 21/3/4 20/3/4 22/3/4
f 21/1/4 22/1/4 23/1/4
f 23/1/4 22/1/4 24/1/4
f 29/2/5 26/2/5 25/2/5
f 30/3/5 27/3/5 26/3/5
f 30/2/5 26/2/5 29/2/5
f 31/1/5 28/1/5 27/1/5
f 31/3/5 27/3/5 30/3/5
f 32/1/5 28/1/5 31/1/5
f 33/2/6 34/2/6 37/2/6
f 34/3/6 35/3/6 38/3/6
f 37/2/6 34/2/6 38/2/6
f 35/1/6 36/1/6 39/1/6
f 38/3/6 35/3/6 39/3/6
f 39/1/6 36/1/6 40/1/6
