# MagicaVoxel @ Ephtracy

# group
o 

# material
mtllib chair.mtl
usemtl palette

# normals
vn -1 0 0
vn 1 0 0
vn 0 0 1
vn 0 0 -1
vn 0 -1 0
vn 0 1 0

# texcoords
vt 0.00585938 0.5
vt 0.0214844 0.5

# verts
v -0.8 1.4 0.7
v -0.8 1.4 0.4
v -0.8 1.4 -0.4
v -0.8 1.4 -0.7
v -0.8 1.5 0.4
v -0.8 1.5 -0.4
v -0.8 1.6 0.6
v -0.8 1.6 0.5
v -0.8 1.6 0.4
v -0.8 1.6 0.2
v -0.8 1.6 0.1
v -0.8 1.6 -0.1
v -0.8 1.6 -0.2
v -0.8 1.6 -0.4
v -0.8 1.6 -0.5
v -0.8 1.6 -0.6
v -0.8 3 0.6
v -0.8 3 0.5
v -0.8 3 -0.5
v -0.8 3 -0.6
v -0.8 3.1 0.7
v -0.8 3.1 0.6
v -0.8 3.1 -0.6
v -0.8 3.1 -0.7
v -0.8 3.2 0.6
v -0.8 3.2 0.5
v -0.8 3.2 0.4
v -0.8 3.2 0.2
v -0.8 3.2 0.1
v -0.8 3.2 -0.1
v -0.8 3.2 -0.2
v -0.8 3.2 -0.4
v -0.8 3.2 -0.5
v -0.8 3.2 -0.6
v -0.8 3.3 0.5
v -0.8 3.3 -0.5
v -0.7 0 0.7
v -0.7 0 0.5
v -0.7 0 -0.5
v -0.7 0 -0.7
v -0.7 1.4 0.8
v -0.7 1.4 0.7
v -0.7 1.4 0.5
v -0.7 1.4 0.4
v -0.7 1.4 -0.4
v -0.7 1.4 -0.5
v -0.7 1.4 -0.7
v -0.7 1.4 -0.8
v -0.7 1.5 0.4
v -0.7 1.5 -0.4
v -0.7 3 0.8
v -0.7 3 0.7
v -0.7 3 -0.7
v -0.7 3 -0.8
v -0.7 3.1 0.7
v -0.7 3.1 0.6
v -0.7 3.1 -0.6
v -0.7 3.1 -0.7
v -0.7 3.2 0.7
v -0.7 3.2 0.6
v -0.7 3.2 0.5
v -0.7 3.2 -0.5
v -0.7 3.2 -0.6
v -0.7 3.2 -0.7
v -0.7 3.3 0.6
v -0.7 3.3 0.5
v -0.7 3.3 -0.5
v -0.7 3.3 -0.6
v -0.7 3.4 0.5
v -0.7 3.4 -0.5
v 0.5 0 0.7
v 0.5 0 0.5
v 0.5 0 -0.5
v 0.5 0 -0.7
v 0.5 1.4 0.7
v 0.5 1.4 0.5
v 0.5 1.4 -0.5
v 0.5 1.4 -0.7
v -0.6 1.5 0.8
v -0.6 1.5 0.7
v -0.6 1.5 -0.7
v -0.6 1.5 -0.8
v -0.6 1.6 0.7
v -0.6 1.6 0.6
v -0.6 1.6 0.5
v -0.6 1.6 0.4
v -0.6 1.6 0.2
v -0.6 1.6 0.1
v -0.6 1.6 -0.1
v -0.6 1.6 -0.2
v -0.6 1.6 -0.4
v -0.6 1.6 -0.5
v -0.6 1.6 -0.6
v -0.6 1.6 -0.7
v -0.6 3 0.8
v -0.6 3 0.7
v -0.6 3 0.6
v -0.6 3 0.5
v -0.6 3 -0.5
v -0.6 3 -0.6
v -0.6 3 -0.7
v -0.6 3 -0.8
v -0.6 3.2 0.7
v -0.6 3.2 0.6
v -0.6 3.2 0.5
v -0.6 3.2 0.4
v -0.6 3.2 0.2
v -0.6 3.2 0.1
v -0.6 3.2 -0.1
v -0.6 3.2 -0.2
v -0.6 3.2 -0.4
v -0.6 3.2 -0.5
v -0.6 3.2 -0.6
v -0.6 3.2 -0.7
v -0.6 3.3 0.6
v -0.6 3.3 0.5
v -0.6 3.3 -0.5
v -0.6 3.3 -0.6
v -0.6 3.4 0.5
v -0.6 3.4 -0.5
v -0.5 0 0.7
v -0.5 0 0.5
v -0.5 0 -0.5
v -0.5 0 -0.7
v -0.5 1.4 0.7
v -0.5 1.4 0.5
v -0.5 1.4 -0.5
v -0.5 1.4 -0.7
v 0.7 0 0.7
v 0.7 0 0.5
v 0.7 0 -0.5
v 0.7 0 -0.7
v 0.7 1.4 0.8
v 0.7 1.4 0.7
v 0.7 1.4 0.5
v 0.7 1.4 -0.5
v 0.7 1.4 -0.7
v 0.7 1.4 -0.8
v 0.7 1.5 0.8
v 0.7 1.5 0.7
v 0.7 1.5 -0.7
v 0.7 1.5 -0.8
v 0.7 1.6 0.7
v 0.7 1.6 -0.7
v 0.8 1.4 0.7
v 0.8 1.4 -0.7
v 0.8 1.5 0.7
v 0.8 1.5 -0.7
v -0.7 1.4 0.8
v -0.7 3 0.8
v -0.6 1.5 0.8
v -0.6 3 0.8
v 0.7 1.4 0.8
v 0.7 1.5 0.8
v -0.8 1.4 0.7
v -0.8 3.1 0.7
v -0.7 0 0.7
v -0.7 1.4 0.7
v -0.7 3 0.7
v -0.7 3.1 0.7
v -0.7 3.2 0.7
v -0.6 1.5 0.7
v -0.6 1.6 0.7
v -0.6 3 0.7
v -0.6 3.2 0.7
v -0.5 0 0.7
v -0.5 1.4 0.7
v 0.5 0 0.7
v 0.5 1.4 0.7
v 0.7 0 0.7
v 0.7 1.4 0.7
v 0.7 1.5 0.7
v 0.7 1.6 0.7
v 0.8 1.4 0.7
v 0.8 1.5 0.7
v -0.8 3.1 0.6
v -0.8 3.2 0.6
v -0.7 3.1 0.6
v -0.7 3.2 0.6
v -0.7 3.3 0.6
v -0.6 3.2 0.6
v -0.6 3.3 0.6
v -0.8 1.6 0.5
v -0.8 3 0.5
v -0.8 3.2 0.5
v -0.8 3.3 0.5
v -0.7 3.2 0.5
v -0.7 3.3 0.5
v -0.7 3.4 0.5
v -0.6 1.6 0.5
v -0.6 3 0.5
v -0.6 3.3 0.5
v -0.6 3.4 0.5
v -0.8 1.6 0.2
v -0.8 3.2 0.2
v -0.6 1.6 0.2
v -0.6 3.2 0.2
v -0.8 1.6 -0.1
v -0.8 3.2 -0.1
v -0.6 1.6 -0.1
v -0.6 3.2 -0.1
v -0.8 1.4 -0.4
v -0.8 1.5 -0.4
v -0.8 1.6 -0.4
v -0.8 3.2 -0.4
v -0.7 1.4 -0.4
v -0.7 1.5 -0.4
v -0.6 1.6 -0.4
v -0.6 3.2 -0.4
v -0.7 0 -0.5
v -0.7 1.4 -0.5
v -0.5 0 -0.5
v -0.5 1.4 -0.5
v 0.5 0 -0.5
v 0.5 1.4 -0.5
v 0.7 0 -0.5
v 0.7 1.4 -0.5
v -0.8 1.6 -0.6
v -0.8 3 -0.6
v -0.6 1.6 -0.6
v -0.6 3 -0.6
v -0.8 1.6 0.6
v -0.8 3 0.6
v -0.6 1.6 0.6
v -0.6 3 0.6
v -0.7 0 0.5
v -0.7 1.4 0.5
v -0.5 0 0.5
v -0.5 1.4 0.5
v 0.5 0 0.5
v 0.5 1.4 0.5
v 0.7 0 0.5
v 0.7 1.4 0.5
v -0.8 1.4 0.4
v -0.8 1.5 0.4
v -0.8 1.6 0.4
v -0.8 3.2 0.4
v -0.7 1.4 0.4
v -0.7 1.5 0.4
v -0.6 1.6 0.4
v -0.6 3.2 0.4
v -0.8 1.6 0.1
v -0.8 3.2 0.1
v -0.6 1.6 0.1
v -0.6 3.2 0.1
v -0.8 1.6 -0.2
v -0.8 3.2 -0.2
v -0.6 1.6 -0.2
v -0.6 3.2 -0.2
v -0.8 1.6 -0.5
v -0.8 3 -0.5
v -0.8 3.2 -0.5
v -0.8 3.3 -0.5
v -0.7 3.2 -0.5
v -0.7 3.3 -0.5
v -0.7 3.4 -0.5
v -0.6 1.6 -0.5
v -0.6 3 -0.5
v -0.6 3.3 -0.5
v -0.6 3.4 -0.5
v -0.8 3.1 -0.6
v -0.8 3.2 -0.6
v -0.7 3.1 -0.6
v -0.7 3.2 -0.6
v -0.7 3.3 -0.6
v -0.6 3.2 -0.6
v -0.6 3.3 -0.6
v -0.8 1.4 -0.7
v -0.8 3.1 -0.7
v -0.7 0 -0.7
v -0.7 1.4 -0.7
v -0.7 3 -0.7
v -0.7 3.1 -0.7
v -0.7 3.2 -0.7
v -0.6 1.5 -0.7
v -0.6 1.6 -0.7
v -0.6 3 -0.7
v -0.6 3.2 -0.7
v -0.5 0 -0.7
v -0.5 1.4 -0.7
v 0.5 0 -0.7
v 0.5 1.4 -0.7
v 0.7 0 -0.7
v 0.7 1.4 -0.7
v 0.7 1.5 -0.7
v 0.7 1.6 -0.7
v 0.8 1.4 -0.7
v 0.8 1.5 -0.7
v -0.7 1.4 -0.8
v -0.7 3 -0.8
v -0.6 1.5 -0.8
v -0.6 3 -0.8
v 0.7 1.4 -0.8
v 0.7 1.5 -0.8
v -0.7 0 0.7
v -0.5 0 0.7
v 0.5 0 0.7
v 0.7 0 0.7
v -0.7 0 0.5
v -0.5 0 0.5
v 0.5 0 0.5
v 0.7 0 0.5
v -0.7 0 -0.5
v -0.5 0 -0.5
v 0.5 0 -0.5
v 0.7 0 -0.5
v -0.7 0 -0.7
v -0.5 0 -0.7
v 0.5 0 -0.7
v 0.7 0 -0.7
v -0.7 1.4 0.8
v 0.7 1.4 0.8
v -0.8 1.4 0.7
v -0.7 1.4 0.7
v -0.5 1.4 0.7
v 0.5 1.4 0.7
v 0.7 1.4 0.7
v 0.8 1.4 0.7
v -0.7 1.4 0.5
v -0.5 1.4 0.5
v 0.5 1.4 0.5
v 0.7 1.4 0.5
v -0.8 1.4 0.4
v -0.7 1.4 0.4
v -0.8 1.4 -0.4
v -0.7 1.4 -0.4
v -0.7 1.4 -0.5
v -0.5 1.4 -0.5
v 0.5 1.4 -0.5
v 0.7 1.4 -0.5
v -0.8 1.4 -0.7
v -0.7 1.4 -0.7
v -0.5 1.4 -0.7
v 0.5 1.4 -0.7
v 0.7 1.4 -0.7
v 0.8 1.4 -0.7
v -0.7 1.4 -0.8
v 0.7 1.4 -0.8
v -0.8 1.5 0.4
v -0.7 1.5 0.4
v -0.8 1.5 -0.4
v -0.7 1.5 -0.4
v -0.8 3 0.6
v -0.6 3 0.6
v -0.8 3 0.5
v -0.6 3 0.5
v -0.8 3 -0.5
v -0.6 3 -0.5
v -0.8 3 -0.6
v -0.6 3 -0.6
v -0.8 3.2 0.4
v -0.6 3.2 0.4
v -0.8 3.2 0.2
v -0.6 3.2 0.2
v -0.8 3.2 0.1
v -0.6 3.2 0.1
v -0.8 3.2 -0.1
v -0.6 3.2 -0.1
v -0.8 3.2 -0.2
v -0.6 3.2 -0.2
v -0.8 3.2 -0.4
v -0.6 3.2 -0.4
v -0.6 1.5 0.8
v 0.7 1.5 0.8
v -0.6 1.5 0.7
v 0.7 1.5 0.7
v 0.8 1.5 0.7
v -0.6 1.5 -0.7
v 0.7 1.5 -0.7
v 0.8 1.5 -0.7
v -0.6 1.5 -0.8
v 0.7 1.5 -0.8
v -0.6 1.6 0.7
v 0.7 1.6 0.7
v -0.8 1.6 0.6
v -0.6 1.6 0.6
v -0.8 1.6 0.5
v -0.6 1.6 0.5
v -0.8 1.6 0.4
v -0.6 1.6 0.4
v -0.8 1.6 0.2
v -0.6 1.6 0.2
v -0.8 1.6 0.1
v -0.6 1.6 0.1
v -0.8 1.6 -0.1
v -0.6 1.6 -0.1
v -0.8 1.6 -0.2
v -0.6 1.6 -0.2
v -0.8 1.6 -0.4
v -0.6 1.6 -0.4
v -0.8 1.6 -0.5
v -0.6 1.6 -0.5
v -0.8 1.6 -0.6
v -0.6 1.6 -0.6
v -0.6 1.6 -0.7
v 0.7 1.6 -0.7
v -0.7 3 0.8
v -0.6 3 0.8
v -0.7 3 0.7
v -0.6 3 0.7
v -0.7 3 -0.7
v -0.6 3 -0.7
v -0.7 3 -0.8
v -0.6 3 -0.8
v -0.8 3.1 0.7
v -0.7 3.1 0.7
v -0.8 3.1 0.6
v -0.7 3.1 0.6
v -0.8 3.1 -0.6
v -0.7 3.1 -0.6
v -0.8 3.1 -0.7
v -0.7 3.1 -0.7
v -0.7 3.2 0.7
v -0.6 3.2 0.7
v -0.8 3.2 0.6
v -0.7 3.2 0.6
v -0.6 3.2 0.6
v -0.8 3.2 0.5
v -0.7 3.2 0.5
v -0.8 3.2 -0.5
v -0.7 3.2 -0.5
v -0.8 3.2 -0.6
v -0.7 3.2 -0.6
v -0.6 3.2 -0.6
v -0.7 3.2 -0.7
v -0.6 3.2 -0.7
v -0.7 3.3 0.6
v -0.6 3.3 0.6
v -0.8 3.3 0.5
v -0.7 3.3 0.5
v -0.6 3.3 0.5
v -0.8 3.3 -0.5
v -0.7 3.3 -0.5
v -0.6 3.3 -0.5
v -0.7 3.3 -0.6
v -0.6 3.3 -0.6
v -0.7 3.4 0.5
v -0.6 3.4 0.5
v -0.7 3.4 -0.5
v -0.6 3.4 -0.5

# faces
f 5/2/1 2/2/1 1/2/1
f 6/2/1 4/2/1 3/2/1
f 7/2/1 5/2/1 1/2/1
f 7/2/1 6/2/1 5/2/1
f 8/2/1 6/2/1 7/2/1
f 9/2/1 6/2/1 8/2/1
f 10/2/1 6/2/1 9/2/1
f 11/2/1 6/2/1 10/2/1
f 12/2/1 6/2/1 11/2/1
f 13/2/1 6/2/1 12/2/1
f 14/2/1 4/2/1 6/2/1
f 14/2/1 6/2/1 13/2/1
f 15/2/1 4/2/1 14/2/1
f 16/2/1 4/2/1 15/2/1
f 17/2/1 7/2/1 1/2/1
f 18/1/1 9/1/1 8/1/1
f 19/1/1 15/1/1 14/1/1
f 20/2/1 4/2/1 16/2/1
f 21/2/1 18/2/1 17/2/1
f 21/2/1 17/2/1 1/2/1
f 22/2/1 18/2/1 21/2/1
f 23/2/1 20/2/1 19/2/1
f 23/2/1 4/2/1 20/2/1
f 24/2/1 4/2/1 23/2/1
f 25/2/1 18/2/1 22/2/1
f 26/1/1 9/1/1 18/1/1
f 26/2/1 18/2/1 25/2/1
f 27/1/1 9/1/1 26/1/1
f 28/1/1 11/1/1 10/1/1
f 29/1/1 11/1/1 28/1/1
f 30/1/1 13/1/1 12/1/1
f 31/1/1 13/1/1 30/1/1
f 32/1/1 19/1/1 14/1/1
f 33/2/1 23/2/1 19/2/1
f 33/1/1 19/1/1 32/1/1
f 34/2/1 23/2/1 33/2/1
f 35/2/1 29/2/1 28/2/1
f 35/2/1 31/2/1 30/2/1
f 35/2/1 33/2/1 32/2/1
f 35/2/1 32/2/1 31/2/1
f 35/2/1 30/2/1 29/2/1
f 35/2/1 27/2/1 26/2/1
f 35/2/1 28/2/1 27/2/1
f 36/2/1 33/2/1 35/2/1
f 42/1/1 38/1/1 37/1/1
f 43/1/1 38/1/1 42/1/1
f 46/1/1 40/1/1 39/1/1
f 47/1/1 40/1/1 46/1/1
f 49/2/1 45/2/1 44/2/1
f 50/2/1 45/2/1 49/2/1
f 51/2/1 42/2/1 41/2/1
f 52/2/1 42/2/1 51/2/1
f 53/2/1 48/2/1 47/2/1
f 54/2/1 48/2/1 53/2/1
f 59/2/1 56/2/1 55/2/1
f 60/2/1 56/2/1 59/2/1
f 63/2/1 58/2/1 57/2/1
f 64/2/1 58/2/1 63/2/1
f 65/2/1 61/2/1 60/2/1
f 66/2/1 61/2/1 65/2/1
f 67/2/1 63/2/1 62/2/1
f 68/2/1 63/2/1 67/2/1
f 69/2/1 67/2/1 66/2/1
f 70/2/1 67/2/1 69/2/1
f 75/1/1 72/1/1 71/1/1
f 76/1/1 72/1/1 75/1/1
f 77/1/1 74/1/1 73/1/1
f 78/1/1 74/1/1 77/1/1
f 79/2/2 80/2/2 83/2/2
f 81/2/2 82/2/2 94/2/2
f 79/2/2 83/2/2 95/2/2
f 83/2/2 84/2/2 95/2/2
f 95/2/2 84/2/2 96/2/2
f 96/2/2 84/2/2 97/2/2
f 85/1/2 86/1/2 98/1/2
f 91/1/2 92/1/2 99/1/2
f 93/2/2 94/2/2 100/2/2
f 94/2/2 82/2/2 101/2/2
f 100/2/2 94/2/2 101/2/2
f 101/2/2 82/2/2 102/2/2
f 97/2/2 98/2/2 103/2/2
f 96/2/2 97/2/2 103/2/2
f 103/2/2 98/2/2 104/2/2
f 98/1/2 86/1/2 105/1/2
f 104/2/2 98/2/2 105/2/2
f 105/1/2 86/1/2 106/1/2
f 87/1/2 88/1/2 107/1/2
f 107/1/2 88/1/2 108/1/2
f 89/1/2 90/1/2 109/1/2
f 109/1/2 90/1/2 110/1/2
f 91/1/2 99/1/2 111/1/2
f 99/2/2 100/2/2 112/2/2
f 100/2/2 101/2/2 112/2/2
f 111/1/2 99/1/2 112/1/2
f 112/2/2 101/2/2 113/2/2
f 113/2/2 101/2/2 114/2/2
f 109/2/2 110/2/2 115/2/2
f 110/2/2 111/2/2 115/2/2
f 112/2/2 113/2/2 115/2/2
f 111/2/2 112/2/2 115/2/2
f 108/2/2 109/2/2 115/2/2
f 105/2/2 106/2/2 115/2/2
f 106/2/2 107/2/2 115/2/2
f 107/2/2 108/2/2 115/2/2
f 104/2/2 105/2/2 115/2/2
f 115/2/2 113/2/2 116/2/2
f 116/2/2 113/2/2 117/2/2
f 117/2/2 113/2/2 118/2/2
f 116/2/2 117/2/2 119/2/2
f 119/2/2 117/2/2 120/2/2
f 121/1/2 122/1/2 125/1/2
f 125/1/2 122/1/2 126/1/2
f 123/1/2 124/1/2 127/1/2
f 127/1/2 124/1/2 128/1/2
f 129/1/2 130/1/2 134/1/2
f 134/1/2 130/1/2 135/1/2
f 131/1/2 132/1/2 136/1/2
f 136/1/2 132/1/2 137/1/2
f 133/2/2 134/2/2 139/2/2
f 139/2/2 134/2/2 140/2/2
f 137/2/2 138/2/2 141/2/2
f 141/2/2 138/2/2 142/2/2
f 140/2/2 141/2/2 143/2/2
f 143/2/2 141/2/2 144/2/2
f 145/2/2 146/2/2 147/2/2
f 147/2/2 146/2/2 148/2/2
f 151/2/3 150/2/3 149/2/3
f 152/2/3 150/2/3 151/2/3
f 153/2/3 151/2/3 149/2/3
f 154/2/3 151/2/3 153/2/3
f 158/2/3 156/2/3 155/2/3
f 159/2/3 156/2/3 158/2/3
f 160/2/3 156/2/3 159/2/3
f 164/2/3 161/2/3 160/2/3
f 164/2/3 160/2/3 159/2/3
f 165/2/3 161/2/3 164/2/3
f 166/1/3 158/1/3 157/1/3
f 167/1/3 158/1/3 166/1/3
f 170/1/3 169/1/3 168/1/3
f 171/1/3 169/1/3 170/1/3
f 172/2/3 163/2/3 162/2/3
f 173/2/3 163/2/3 172/2/3
f 174/2/3 172/2/3 171/2/3
f 175/2/3 172/2/3 174/2/3
f 178/2/3 177/2/3 176/2/3
f 179/2/3 177/2/3 178/2/3
f 181/2/3 180/2/3 179/2/3
f 182/2/3 180/2/3 181/2/3
f 187/2/3 186/2/3 185/2/3
f 188/2/3 186/2/3 187/2/3
f 190/1/3 184/1/3 183/1/3
f 191/1/3 184/1/3 190/1/3
f 192/2/3 189/2/3 188/2/3
f 193/2/3 189/2/3 192/2/3
f 196/1/3 195/1/3 194/1/3
f 197/1/3 195/1/3 196/1/3
f 200/1/3 199/1/3 198/1/3
f 201/1/3 199/1/3 200/1/3
f 206/2/3 203/2/3 202/2/3
f 207/2/3 203/2/3 206/2/3
f 208/1/3 205/1/3 204/1/3
f 209/1/3 205/1/3 208/1/3
f 212/1/3 211/1/3 210/1/3
f 213/1/3 211/1/3 212/1/3
f 216/1/3 215/1/3 214/1/3
f 217/1/3 215/1/3 216/1/3
f 220/2/3 219/2/3 218/2/3
f 221/2/3 219/2/3 220/2/3
f 222/2/4 223/2/4 224/2/4
f 224/2/4 223/2/4 225/2/4
f 226/1/4 227/1/4 228/1/4
f 228/1/4 227/1/4 229/1/4
f 230/1/4 231/1/4 232/1/4
f 232/1/4 231/1/4 233/1/4
f 234/2/4 235/2/4 238/2/4
f 238/2/4 235/2/4 239/2/4
f 236/1/4 237/1/4 240/1/4
f 240/1/4 237/1/4 241/1/4
f 242/1/4 243/1/4 244/1/4
f 244/1/4 243/1/4 245/1/4
f 246/1/4 247/1/4 248/1/4
f 248/1/4 247/1/4 249/1/4
f 252/2/4 253/2/4 254/2/4
f 254/2/4 253/2/4 255/2/4
f 250/1/4 251/1/4 257/1/4
f 257/1/4 251/1/4 258/1/4
f 255/2/4 256/2/4 259/2/4
f 259/2/4 256/2/4 260/2/4
f 261/2/4 262/2/4 263/2/4
f 263/2/4 262/2/4 264/2/4
f 264/2/4 265/2/4 266/2/4
f 266/2/4 265/2/4 267/2/4
f 268/2/4 269/2/4 271/2/4
f 271/2/4 269/2/4 272/2/4
f 272/2/4 269/2/4 273/2/4
f 273/2/4 274/2/4 277/2/4
f 272/2/4 273/2/4 277/2/4
f 277/2/4 274/2/4 278/2/4
f 270/1/4 271/1/4 279/1/4
f 279/1/4 271/1/4 280/1/4
f 281/1/4 282/1/4 283/1/4
f 283/1/4 282/1/4 284/1/4
f 275/2/4 276/2/4 285/2/4
f 285/2/4 276/2/4 286/2/4
f 284/2/4 285/2/4 287/2/4
f 287/2/4 285/2/4 288/2/4
f 289/2/4 290/2/4 291/2/4
f 291/2/4 290/2/4 292/2/4
f 289/2/4 291/2/4 293/2/4
f 293/2/4 291/2/4 294/2/4
f 299/1/5 296/1/5 295/1/5
f 300/1/5 296/1/5 299/1/5
f 301/1/5 298/1/5 297/1/5
f 302/1/5 298/1/5 301/1/5
f 307/1/5 304/1/5 303/1/5
f 308/1/5 304/1/5 307/1/5
f 309/1/5 306/1/5 305/1/5
f 310/1/5 306/1/5 309/1/5
f 314/2/5 312/2/5 311/2/5
f 315/2/5 312/2/5 314/2/5
f 316/2/5 312/2/5 315/2/5
f 317/2/5 312/2/5 316/2/5
f 319/2/5 314/2/5 313/2/5
f 320/2/5 316/2/5 315/2/5
f 321/2/5 316/2/5 320/2/5
f 322/2/5 318/2/5 317/2/5
f 323/2/5 321/2/5 320/2/5
f 323/2/5 322/2/5 321/2/5
f 323/2/5 319/2/5 313/2/5
f 323/2/5 320/2/5 319/2/5
f 324/2/5 322/2/5 323/2/5
f 326/2/5 322/2/5 324/2/5
f 327/2/5 322/2/5 326/2/5
f 327/2/5 326/2/5 325/2/5
f 328/2/5 322/2/5 327/2/5
f 329/2/5 322/2/5 328/2/5
f 330/2/5 318/2/5 322/2/5
f 330/2/5 322/2/5 329/2/5
f 331/2/5 327/2/5 325/2/5
f 332/2/5 327/2/5 331/2/5
f 333/2/5 329/2/5 328/2/5
f 334/2/5 329/2/5 333/2/5
f 335/2/5 318/2/5 330/2/5
f 336/2/5 318/2/5 335/2/5
f 337/2/5 334/2/5 333/2/5
f 337/2/5 335/2/5 334/2/5
f 337/2/5 333/2/5 332/2/5
f 338/2/5 335/2/5 337/2/5
f 341/2/5 340/2/5 339/2/5
f 342/2/5 340/2/5 341/2/5
f 345/2/5 344/2/5 343/2/5
f 346/2/5 344/2/5 345/2/5
f 349/2/5 348/2/5 347/2/5
f 350/2/5 348/2/5 349/2/5
f 353/2/5 352/2/5 351/2/5
f 354/2/5 352/2/5 353/2/5
f 357/2/5 356/2/5 355/2/5
f 358/2/5 356/2/5 357/2/5
f 361/2/5 360/2/5 359/2/5
f 362/2/5 360/2/5 361/2/5
f 363/2/6 364/2/6 365/2/6
f 365/2/6 364/2/6 366/2/6
f 366/2/6 367/2/6 369/2/6
f 369/2/6 367/2/6 370/2/6
f 368/2/6 369/2/6 371/2/6
f 371/2/6 369/2/6 372/2/6
f 373/2/6 374/2/6 376/2/6
f 375/2/6 376/2/6 377/2/6
f 376/2/6 374/2/6 378/2/6
f 377/2/6 376/2/6 378/2/6
f 378/2/6 374/2/6 380/2/6
f 379/2/6 380/2/6 381/2/6
f 380/2/6 374/2/6 382/2/6
f 381/2/6 380/2/6 382/2/6
f 382/2/6 374/2/6 384/2/6
f 383/2/6 384/2/6 385/2/6
f 384/2/6 374/2/6 386/2/6
f 385/2/6 384/2/6 386/2/6
f 386/2/6 374/2/6 388/2/6
f 387/2/6 388/2/6 389/2/6
f 388/2/6 374/2/6 390/2/6
f 389/2/6 388/2/6 390/2/6
f 390/2/6 374/2/6 392/2/6
f 391/2/6 392/2/6 393/2/6
f 392/2/6 374/2/6 394/2/6
f 393/2/6 392/2/6 394/2/6
f 394/2/6 374/2/6 395/2/6
f 395/2/6 374/2/6 396/2/6
f 397/2/6 398/2/6 399/2/6
f 399/2/6 398/2/6 400/2/6
f 401/2/6 402/2/6 403/2/6
f 403/2/6 402/2/6 404/2/6
f 405/2/6 406/2/6 407/2/6
f 407/2/6 406/2/6 408/2/6
f 409/2/6 410/2/6 411/2/6
f 411/2/6 410/2/6 412/2/6
f 413/2/6 414/2/6 416/2/6
f 416/2/6 414/2/6 417/2/6
f 415/2/6 416/2/6 418/2/6
f 418/2/6 416/2/6 419/2/6
f 420/2/6 421/2/6 422/2/6
f 422/2/6 421/2/6 423/2/6
f 423/2/6 424/2/6 425/2/6
f 425/2/6 424/2/6 426/2/6
f 427/2/6 428/2/6 430/2/6
f 430/2/6 428/2/6 431/2/6
f 429/2/6 430/2/6 432/2/6
f 432/2/6 430/2/6 433/2/6
f 433/2/6 434/2/6 435/2/6
f 435/2/6 434/2/6 436/2/6
f 437/2/6 438/2/6 439/2/6
f 439/2/6 438/2/6 440/2/6
